<svg width="32" height="32" viewBox="0 0 32 32" fill="none" xmlns="http://www.w3.org/2000/svg">
<path d="M4.50415 0.00725628C6.161 0.00817242 7.50415 1.35095 7.50415 3.00781C7.50415 6.03265 7.50415 9.05964 7.50415 12.0827C7.50415 12.2882 7.64313 12.4246 7.8165 12.3143V12.3143C9.08931 11.5647 10.3621 10.815 11.6349 10.0654C11.9161 9.90142 11.9239 9.90142 11.9239 10.2294C11.9239 11.6662 11.9239 13.103 11.9239 14.5398C11.9239 14.9224 11.9239 14.9224 12.2596 14.7584C15.3831 13.2435 18.4988 11.7208 21.6223 10.206C21.9502 10.0498 21.9502 10.0498 21.9502 10.4246C21.9502 11.7989 21.9502 13.1733 21.9502 14.5476C21.9502 14.9302 21.9502 14.9302 22.286 14.7662C25.4329 13.2357 28.5876 11.7052 31.7345 10.1747V10.1747C31.8539 10.1205 31.9922 10.2142 31.9922 10.3453C31.9922 17.4753 31.9923 24.6126 32 31.7423C32 31.9531 31.961 32 31.7423 32C21.2474 31.9922 10.7526 31.9922 0.257687 32C0.0468521 32 0 31.961 0 31.7423C0.00780869 21.2474 0.00780869 10.7526 0 0.257687C0 0.0390434 0.0390434 0 0.257687 0C1.67265 0.00457916 3.08761 0.00647302 4.50415 0.00725628ZM20.0762 13.4833C20.0761 13.263 19.911 13.1156 19.7169 13.2201V13.2201C16.5935 14.735 13.47 16.2499 10.3465 17.7804C10.0888 17.9053 10.042 17.8663 10.042 17.593C10.0498 16.2421 10.0498 14.8834 10.042 13.5325C10.042 13.4388 10.0576 13.306 10.0107 13.267C9.91703 13.1967 9.82333 13.3138 9.74524 13.3607C7.20742 14.8521 4.6774 16.3514 2.13177 17.835C1.92875 17.9522 1.87409 18.0771 1.87409 18.3036C1.88189 22.122 1.88189 25.9483 1.87409 29.7667C1.87409 30.0556 1.95217 30.1181 2.23328 30.1181C11.4085 30.1103 20.5759 30.1103 29.7511 30.1181C30.0478 30.1181 30.1259 30.0556 30.1259 29.7511C30.1181 24.3084 30.1181 18.858 30.1181 13.4153V13.4153C30.1181 13.2448 29.9387 13.1286 29.7854 13.2032C29.7739 13.2088 29.7625 13.2144 29.7511 13.2201C26.6276 14.735 23.5042 16.2577 20.3885 17.7804C20.1464 17.8975 20.0683 17.8897 20.0761 17.593C20.0918 17.0307 20.0839 16.4685 20.0839 15.9063C20.0772 15.0978 20.0763 14.2952 20.0762 13.4833ZM1.88156 15.6501C1.88208 15.7147 1.9531 15.7781 2.00683 15.7423V15.7423C3.16252 15.063 4.3182 14.3836 5.47389 13.7042C5.60664 13.6262 5.63006 13.5403 5.63006 13.3997C5.63006 9.64373 5.63006 5.88775 5.63006 2.13177C5.63006 1.92875 5.56759 1.87409 5.36457 1.87409C4.3104 1.88189 3.26403 1.8897 2.20986 1.86628C1.90532 1.85847 1.86628 1.96779 1.86628 2.23328C1.87408 6.63738 1.87409 11.0337 1.87409 15.4378C1.87916 15.5038 1.88094 15.5731 1.88156 15.6501Z" fill="#D9A418"/>
<path d="M10.3776 26.3698C8.90173 26.3698 7.42588 26.362 5.95004 26.3776C5.70016 26.3776 5.6377 26.3073 5.6377 26.0653C5.6455 24.3942 5.6455 22.7153 5.6377 21.0443C5.6377 20.8178 5.69236 20.7476 5.93443 20.7476C8.88611 20.7554 11.8456 20.7554 14.7973 20.7476C15.0237 20.7476 15.0706 20.8178 15.0706 21.0287C15.0628 22.7153 15.0628 24.402 15.0706 26.0809C15.0706 26.3464 14.9769 26.3776 14.7504 26.3776C13.2902 26.362 11.83 26.3698 10.3776 26.3698ZM10.3463 24.4957C11.2053 24.4957 12.0721 24.4879 12.931 24.4957C13.1106 24.4957 13.1965 24.4723 13.1887 24.2615C13.1731 23.7851 13.1809 23.3088 13.1887 22.8247C13.1887 22.6607 13.1418 22.606 12.9779 22.6138C11.2287 22.6216 9.48738 22.6216 7.73823 22.6138C7.55863 22.6138 7.50397 22.6763 7.51178 22.8481C7.51959 23.3088 7.5274 23.7617 7.51178 24.2224C7.50397 24.4411 7.57425 24.5035 7.79289 24.5035C8.64404 24.4879 9.49519 24.4957 10.3463 24.4957Z" fill="#D9A418"/>
<path d="M21.6222 26.3698C20.1698 26.3698 18.7096 26.362 17.2572 26.3776C17.0307 26.3776 16.937 26.3464 16.937 26.0809C16.9526 24.3942 16.9448 22.7075 16.937 21.0287C16.937 20.8178 16.9839 20.7476 17.2103 20.7476C20.162 20.7554 23.1215 20.7554 26.0732 20.7476C26.3074 20.7476 26.3699 20.8178 26.3699 21.0443C26.3621 22.7153 26.3621 24.3942 26.3699 26.0653C26.3699 26.3073 26.3152 26.3854 26.0576 26.3776C24.5739 26.362 23.0981 26.3698 21.6222 26.3698ZM21.6535 22.6138C20.7945 22.6138 19.9277 22.6216 19.0688 22.606C18.8658 22.606 18.7955 22.6529 18.8033 22.8637C18.8189 23.3166 18.8111 23.7773 18.8033 24.238C18.8033 24.4098 18.8267 24.4957 19.0375 24.4957C20.7711 24.4879 22.5046 24.4879 24.2459 24.4957C24.449 24.4957 24.488 24.4176 24.4802 24.238C24.4724 23.7929 24.4646 23.34 24.4802 22.8949C24.488 22.6451 24.4021 22.606 24.1757 22.606C23.3401 22.6216 22.4968 22.6138 21.6535 22.6138Z" fill="#D9A418"/>
</svg>
