<svg width="28" height="30" viewBox="0 0 28 30" fill="none" xmlns="http://www.w3.org/2000/svg">
<path d="M22.2948 0C22.828 0.129018 23.3688 0.2125 23.8792 0.425C25.0979 0.918304 26.149 1.65446 27.0707 2.58036C27.2763 2.79286 27.4286 3.03571 27.4286 3.3317C27.4286 4.52321 27.5124 5.72232 27.2687 6.90625C26.6517 9.87366 25.0065 12.0746 22.3253 13.5013C21.9216 13.7138 21.5331 13.7138 21.1294 13.5013C18.1436 11.8848 16.4527 9.39554 16.0642 6.03348C15.9652 5.14554 16.0261 4.25 16.0185 3.36205C16.0185 3.0433 16.1708 2.77768 16.3993 2.55759C17.7094 1.275 19.2024 0.295982 21.0761 0.0379464C21.099 0.0379464 21.1218 0.00758929 21.1447 0C21.5331 0 21.914 0 22.2948 0ZM18.2959 4.81161C18.3036 4.99375 18.2883 5.17589 18.3036 5.35045C18.4407 7.7942 19.507 9.71429 21.5408 11.1031C21.6779 11.1942 21.7769 11.2018 21.914 11.1031C23.1632 10.2759 24.062 9.16027 24.6409 7.78661C25.1512 6.56473 25.1893 5.28214 25.1588 3.98438C25.1588 3.88571 25.0979 3.83259 25.0369 3.77188C24.4276 3.24821 23.7725 2.80045 23.0184 2.51205C22.1425 2.17812 21.2742 2.1933 20.3982 2.53482C19.865 2.74732 19.3928 3.05848 18.9129 3.36964C18.4483 3.67321 18.1893 4.0375 18.3036 4.6067C18.3036 4.68259 18.2959 4.75089 18.2959 4.81161Z" fill="#D9A418"/>
<path d="M12.5449 24.5892C12.2555 24.5816 11.9813 24.4678 11.7528 24.2401C10.9987 23.4888 10.237 22.745 9.49055 21.9861C9.02591 21.5156 9.02591 20.8249 9.46769 20.3772C9.91709 19.9218 10.6179 19.9142 11.1053 20.3848C11.5319 20.7946 11.9508 21.2044 12.3545 21.637C12.5373 21.8343 12.6287 21.7964 12.7963 21.6294C13.9465 20.4682 15.1118 19.3223 16.262 18.1687C16.5971 17.8348 16.9856 17.683 17.4502 17.8196C18.2348 18.0473 18.5318 18.958 18.0444 19.6031C17.9834 19.6865 17.9073 19.7624 17.8311 19.8307C16.3839 21.2727 14.9367 22.7147 13.4894 24.1566C13.2457 24.4071 12.9562 24.5892 12.5449 24.5892Z" fill="#D9A418"/>
<path d="M8.00526 6.83008C8.7441 6.83008 9.49056 6.83008 10.2294 6.83008C10.9225 6.83008 11.4329 7.31579 11.4329 7.96847C11.4329 8.62115 10.9225 9.10686 10.2294 9.10686C8.7441 9.10686 7.2588 9.10686 5.78111 9.10686C5.08797 9.10686 4.57764 8.62115 4.57764 7.96847C4.57764 7.31579 5.08797 6.83767 5.78111 6.83008C6.52757 6.83008 7.26641 6.83008 8.00526 6.83008Z" fill="#D9A418"/>
<path d="M8.03572 11.3838C8.76695 11.3838 9.49817 11.3838 10.2294 11.3838C10.9225 11.3838 11.4329 11.8695 11.4329 12.5222C11.4329 13.1749 10.9225 13.6606 10.2294 13.6606C8.7441 13.6606 7.2588 13.6606 5.78111 13.6606C5.08797 13.6606 4.57764 13.1749 4.57764 12.5222C4.57764 11.8695 5.08797 11.3914 5.78111 11.3838C6.53519 11.3838 7.28926 11.3838 8.03572 11.3838Z" fill="#D9A418"/>
<path d="M13.322 0C13.3677 0.0758929 13.4515 0.0683036 13.5201 0.0986607C14.0228 0.333929 14.2894 0.85 14.1751 1.38884C14.0685 1.88214 13.6191 2.26161 13.0859 2.2692C12.5832 2.27679 12.0805 2.2692 11.5701 2.2692C9.65827 2.2692 7.74642 2.2692 5.82695 2.2692C3.79323 2.2692 2.2927 3.7567 2.2927 5.79063C2.2927 11.642 2.2927 17.4933 2.2927 23.3446C2.2927 25.3558 3.79323 26.8509 5.81172 26.8509C9.55925 26.8509 13.3144 26.8509 17.0619 26.8509C19.0804 26.8509 20.5733 25.3558 20.5733 23.3371C20.5733 21.2576 20.5733 19.1857 20.5733 17.1062C20.5733 16.6357 20.7714 16.279 21.1827 16.0589C21.5864 15.8464 21.9901 15.8768 22.3709 16.1348C22.6832 16.3473 22.8508 16.6509 22.8508 17.0228C22.8584 19.2616 22.8965 21.5004 22.8356 23.7393C22.7594 26.4335 20.5886 28.7406 17.8998 29.0746C17.8312 29.0821 17.7627 29.0746 17.7094 29.1277C13.5201 29.1277 9.33074 29.1277 5.14143 29.1277C5.08811 29.1125 5.03479 29.0821 4.98147 29.0746C2.14036 28.7027 0.00761693 26.3196 0 23.4585C0.00761693 17.5388 0.00761693 11.604 0.0152339 5.6692C0.0152339 3.1192 1.72143 0.910714 4.18931 0.220089C4.50161 0.129018 4.82913 0.0683036 5.15666 0C7.87591 0 10.6028 0 13.322 0Z" fill="#D9A418"/>
</svg>
