<svg width="29" height="29" viewBox="0 0 29 29" fill="none" xmlns="http://www.w3.org/2000/svg">
<path d="M0 24.343C0 24.0489 0 23.7617 0 23.4677C0.0136761 23.4335 0.0341901 23.3993 0.0410282 23.3651C0.170951 22.3326 0.683803 21.512 1.40863 20.7872C3.76092 18.4486 6.09952 16.0963 8.44497 13.7509C8.78003 13.4158 8.77319 13.4226 8.45864 13.0876C8.3082 12.9235 8.17144 12.8893 7.95947 12.9508C7.65175 13.0397 7.3372 13.0602 7.01582 13.0876C4.15068 13.3337 1.32658 11.4943 0.38293 8.77961C0.191465 8.23256 0.109408 7.67185 0 7.11113C0 6.74871 0 6.37946 0 6.01704C0.0205141 5.94866 0.0410282 5.88028 0.0478662 5.80507C0.143599 5.03921 0.355577 4.30754 0.704317 3.6169C1.05989 2.90574 1.64796 2.80317 2.20868 3.37073C3.14549 4.30754 4.07547 5.23751 5.01228 6.17432C5.08749 6.24954 5.16955 6.33159 5.25161 6.39314C5.52513 6.60511 5.88754 6.62563 6.17474 6.441C6.47561 6.24954 6.5987 5.96918 6.55767 5.62044C6.53032 5.38111 6.37988 5.21016 6.21577 5.04604C5.25161 4.09556 4.28061 3.12456 3.32328 2.15356C2.83778 1.66122 2.94035 1.05264 3.54894 0.738086C4.79346 0.108987 6.1132 -0.130344 7.49448 0.0679592C11.2896 0.608164 13.7991 4.28018 12.9376 8.02742C12.8965 8.19154 12.9239 8.29411 13.047 8.41035C13.5051 8.85483 13.9633 9.2993 14.4009 9.76428C14.5582 9.9284 14.6402 9.90104 14.7838 9.75745C16.0557 8.47873 17.3344 7.20002 18.6063 5.92815C19.0644 5.47 19.0644 5.47 18.6131 5.01185C18.0661 4.46481 18.1345 3.91093 18.7909 3.51433C20.6235 2.4134 22.4629 1.31248 24.2955 0.211558C24.8152 -0.102991 25.1366 -0.0619633 25.5606 0.361995C26.2512 1.05264 26.9418 1.74328 27.6256 2.43392C28.0769 2.88523 28.1111 3.19294 27.7829 3.74682C27.3453 4.47849 26.9008 5.217 26.4632 5.94866C25.8067 7.04275 25.1503 8.13683 24.4938 9.23092C24.1041 9.88053 23.5502 9.94891 23.0168 9.42238C22.9142 9.31981 22.8048 9.22408 22.7091 9.11467C22.5997 8.98475 22.5245 8.97107 22.3877 9.10783C20.9996 10.5028 19.6115 11.8977 18.2097 13.2859C18.0934 13.4021 18.0797 13.4637 18.2028 13.5867C18.6815 14.0517 19.1533 14.5236 19.6115 14.9954C19.7277 15.1116 19.8303 15.1185 19.9807 15.0774C20.8765 14.8586 21.786 14.8381 22.6954 15.0227C26.9897 15.8912 29.2326 20.4453 27.3111 24.3703C26.9418 25.1157 26.3674 25.2114 25.7725 24.6165C24.8426 23.6865 23.9194 22.7634 22.9895 21.8334C22.9142 21.7582 22.8322 21.6761 22.7501 21.6146C22.4766 21.4094 22.1142 21.3889 21.827 21.5667C21.533 21.7582 21.403 22.0385 21.4509 22.3873C21.4782 22.6129 21.615 22.7839 21.7723 22.9412C22.7433 23.9122 23.7211 24.8832 24.6921 25.861C25.1776 26.3533 25.0751 26.9619 24.4596 27.2696C24.0835 27.4611 23.6938 27.6115 23.2972 27.7415C22.8732 27.8782 22.4219 27.9124 21.9911 28.015C21.6287 28.015 21.2594 28.015 20.897 28.015C20.7192 27.9261 20.5209 27.9534 20.3363 27.9193C16.6848 27.2902 14.2641 23.7549 15.0437 20.1376C15.112 19.8299 15.0231 19.6589 14.818 19.4538C14.6402 19.276 14.5513 19.2555 14.353 19.4469C11.9529 21.8676 9.53221 24.2677 7.12523 26.6816C6.49613 27.3107 5.7713 27.7483 4.89603 27.9329C4.77294 27.9603 4.63618 27.9261 4.52677 28.015C4.23274 28.015 3.94554 28.015 3.65151 28.015C3.61048 28.0013 3.56945 27.974 3.52842 27.9671C2.05141 27.7346 1.00519 26.9346 0.355577 25.5943C0.170951 25.1909 0.109408 24.7669 0 24.343ZM1.82575 5.31957C1.80524 5.37427 1.79156 5.40846 1.77789 5.43581C1.14195 7.80861 2.6258 10.4754 4.97125 11.2003C6.03114 11.5285 7.0842 11.5353 8.13725 11.2003C8.51335 11.084 8.83473 11.1524 9.11509 11.4328C11.6041 13.9218 14.0863 16.4108 16.5754 18.8999C16.8421 19.1666 16.9036 19.4674 16.8079 19.8299C16.7327 20.1171 16.6438 20.4043 16.5959 20.7051C16.1514 23.666 18.3738 26.3123 21.362 26.367C21.7996 26.3739 22.2373 26.326 22.7023 26.1756C22.2988 25.7789 21.9296 25.4234 21.5671 25.0541C21.1432 24.6233 20.6919 24.2267 20.3158 23.7549C19.5499 22.8112 19.6388 21.3821 20.5141 20.5137C21.3894 19.6384 22.8185 19.5427 23.7553 20.329C24.5485 20.9923 25.2255 21.7719 25.964 22.483C26.0324 22.5446 26.0802 22.6471 26.1897 22.6608C26.6957 21.1223 26.1144 19.0367 24.8767 17.9221C23.4544 16.6433 21.827 16.2536 19.9876 16.7801C19.5021 16.9169 19.1396 16.828 18.7841 16.4656C16.3976 14.0586 13.9974 11.6584 11.5905 9.27195C11.2007 8.88218 11.0776 8.49925 11.2486 7.97272C11.5289 7.12481 11.5563 6.2427 11.3238 5.38795C10.7767 3.37757 9.47067 2.13304 7.41926 1.71592C6.72178 1.57233 6.03114 1.62019 5.31999 1.81849C5.40204 1.90739 5.46359 1.97577 5.52513 2.03731C6.14055 2.65957 6.76281 3.27499 7.37823 3.89726C7.54235 4.06821 7.70646 4.24599 7.82954 4.4443C8.46548 5.47 8.28769 6.81026 7.4261 7.56244C6.46194 8.40352 5.1422 8.45822 4.19171 7.62398C3.43269 6.96069 2.76256 6.22902 2.05141 5.53154C1.98303 5.46316 1.90781 5.39478 1.82575 5.31957ZM1.64113 23.9532C1.6548 24.596 1.90097 25.2456 2.46853 25.7242C3.52842 26.6337 4.9097 26.5722 5.9149 25.567C8.36975 23.1258 10.8109 20.6709 13.2658 18.2229C13.3889 18.0998 13.4025 18.0383 13.2726 17.9015C12.2127 16.8485 11.1528 15.7954 10.0998 14.7287C9.96985 14.5988 9.9083 14.6056 9.77838 14.7287C7.33037 17.1835 4.88235 19.6316 2.43434 22.0796C1.94884 22.5787 1.66848 23.1668 1.64113 23.9532ZM23.5707 7.56928C24.3981 6.19483 25.2323 4.80671 26.0666 3.41859C26.1349 3.30235 26.1281 3.23397 26.0324 3.14507C25.6358 2.7553 25.2392 2.36554 24.8562 1.96893C24.7673 1.88004 24.7058 1.88004 24.6032 1.94158C23.2083 2.78266 21.8133 3.6169 20.4389 4.4443C21.4782 5.48368 22.5245 6.52306 23.5707 7.56928ZM21.3688 7.78809C21.3415 7.74707 21.3141 7.71288 21.2799 7.67869C20.9654 7.36414 20.644 7.04959 20.3363 6.7282C20.2201 6.60511 20.1585 6.68033 20.0765 6.76239C18.6815 8.16419 17.2797 9.55914 15.8779 10.9541C15.748 11.0772 15.7685 11.1456 15.8847 11.255C16.1788 11.5353 16.4728 11.8294 16.7532 12.1234C16.8557 12.2328 16.9173 12.2465 17.0335 12.1302C18.4353 10.7216 19.8371 9.31981 21.2458 7.91118C21.2936 7.87699 21.3278 7.83596 21.3688 7.78809Z" fill="#D9A418"/>
<path d="M10.8997 18.1479C10.9066 18.3393 10.7972 18.5376 10.6331 18.7017C8.98509 20.3497 7.33712 21.9977 5.68916 23.6456C5.33358 23.9944 4.84124 24.0012 4.51302 23.6867C4.17795 23.3584 4.16428 22.8524 4.52669 22.49C6.17466 20.8284 7.8363 19.1736 9.4911 17.5256C9.75779 17.2589 10.0723 17.1974 10.4211 17.3341C10.7219 17.4641 10.9066 17.7649 10.8997 18.1479Z" fill="#D9A418"/>
</svg>
