<svg width="150" height="60" viewBox="0 0 150 60" fill="none" xmlns="http://www.w3.org/2000/svg">
<path fill-rule="evenodd" clip-rule="evenodd" d="M79.8124 0.0726115C79.0104 0.282771 78.4958 0.914985 78.5607 1.61043C78.5879 1.90152 78.6528 2.05674 78.8289 2.25174C79.0136 2.45616 79.2163 2.55466 79.4992 2.5774C79.9855 2.61645 80.3584 2.30631 80.3596 1.86185C80.3599 1.74808 80.3303 1.73614 80.1916 1.79411C79.8925 1.91912 79.6455 1.80779 79.5257 1.49388C79.4377 1.26361 79.4699 0.930329 79.5988 0.735478C79.7902 0.446158 80.2388 0.339193 80.5631 0.505575C80.7545 0.603814 80.8147 0.673399 80.9402 0.941569C81.0377 1.14988 81.0435 1.19074 81.0421 1.66156C81.0407 2.12998 81.0335 2.17953 80.9244 2.46615C80.7307 2.97531 80.5283 3.26948 79.8598 4.0135C79.4016 4.52344 79.0898 4.91477 78.8613 5.2665C78.6068 5.65846 78.3496 6.13358 78.377 6.16101C78.3891 6.17314 78.9691 6.19651 79.6659 6.21303C81.4 6.25407 81.5814 6.26446 81.6228 6.3251C81.6417 6.35294 81.6495 6.46146 81.64 6.56624L81.6227 6.75677L81.7767 6.7733C81.8614 6.78243 81.9438 6.77844 81.9598 6.76446C81.9758 6.75052 82.0768 6.3745 82.1842 5.92885L82.3795 5.11861L82.0627 5.0948C81.8885 5.08171 81.4382 5.0671 81.0621 5.06237C80.686 5.0576 80.1965 5.04337 79.9744 5.03072L79.5705 5.00769L79.8442 4.75442C79.9948 4.61514 80.3845 4.30019 80.7102 4.05454C81.8218 3.21612 82.0928 2.95058 82.3051 2.49158C82.5076 2.05385 82.5025 1.44641 82.2927 1.00062C82.091 0.572238 81.5922 0.193701 81.0451 0.0540137C80.7359 -0.0249623 80.151 -0.0161256 79.8124 0.0726115ZM67.9953 0.148667C66.841 0.225128 65.19 0.296562 64.075 0.318339L62.8466 0.342335L62.8202 1.12211C62.8058 1.55097 62.7998 1.94349 62.8071 1.99432C62.819 2.07718 62.8397 2.0879 63.0071 2.09767L63.1938 2.10861L63.2614 1.81071C63.4238 1.0949 63.7554 0.856936 64.6821 0.791234L65.0567 0.76465L65.058 0.945045C65.0587 1.04428 65.0983 2.08517 65.1459 3.25813C65.1935 4.43112 65.2202 5.45784 65.2053 5.53978C65.1514 5.83431 64.9944 5.94305 64.5284 6.00846L64.3511 6.03334L64.376 6.20453C64.3896 6.2987 64.407 6.38267 64.4146 6.39114C64.4221 6.39964 64.7735 6.38722 65.1953 6.36355C65.6172 6.33989 66.3407 6.30957 66.8032 6.29615L67.6442 6.27175V6.09727C67.6442 5.93144 67.6384 5.92164 67.5286 5.89968C67.4651 5.88696 67.3482 5.87657 67.2687 5.87657C66.9525 5.87657 66.7438 5.69303 66.7027 5.37865C66.6919 5.29664 66.6502 4.33939 66.6099 3.25143C66.5696 2.16348 66.5276 1.14441 66.5166 0.986788L66.4965 0.700242L66.8763 0.700537C67.8715 0.70124 68.1464 0.867659 68.4013 1.62359L68.4827 1.86492H68.6641C68.8022 1.86492 68.8447 1.85168 68.8422 1.80946C68.8404 1.77895 68.8085 1.38381 68.7712 0.931328L68.7034 0.108661L68.5712 0.113985C68.4984 0.116906 68.2393 0.132509 67.9953 0.148667ZM87.2316 0.252785C86.5363 0.475293 85.9083 1.27929 85.6448 2.28435C85.4597 2.98992 85.4506 3.9702 85.6228 4.63795C85.9697 5.9832 86.9056 6.74412 87.9004 6.48982C88.5409 6.32614 89.1493 5.68264 89.455 4.84567C90.1607 2.91342 89.506 0.647406 88.1247 0.241582C87.8639 0.164972 87.4914 0.169631 87.2316 0.252785ZM59.5416 0.468268C59.4007 0.483095 59.3927 0.493632 59.3456 0.727972C59.3322 0.794081 59.3139 0.848137 59.3048 0.848137C59.2956 0.848137 59.193 0.800514 59.0767 0.742281C58.7936 0.600634 58.6499 0.556968 58.3453 0.520068C57.894 0.465421 57.361 0.55682 56.9599 0.757588C55.9626 1.25685 55.7994 2.70115 56.6463 3.53181C56.9214 3.8016 57.2066 3.95138 58.0335 4.26045C58.6809 4.5024 58.9002 4.61133 59.0622 4.77131C59.5698 5.27238 59.3929 6.05926 58.7139 6.32074C58.5549 6.38197 58.4149 6.40541 58.199 6.40692C57.943 6.4087 57.8696 6.39358 57.663 6.29641C57.2744 6.11368 57.0042 5.79327 56.7556 5.22029L56.6312 4.93374L56.44 4.92239C56.3348 4.91614 56.2366 4.92446 56.2218 4.94088C56.2071 4.95729 56.2166 5.18701 56.2431 5.45137C56.2695 5.71574 56.3023 6.14415 56.3159 6.40345L56.3406 6.87486H56.4432C56.6776 6.87486 56.7719 6.83393 56.7932 6.72275C56.8045 6.66408 56.823 6.56772 56.8344 6.50864L56.855 6.40119L57.1109 6.55903C57.4887 6.79201 57.7413 6.85582 58.2738 6.85294C58.7906 6.85013 59.1052 6.78291 59.5004 6.59083C60.1998 6.25089 60.5951 5.56954 60.5349 4.80766C60.5047 4.42539 60.4263 4.18587 60.2413 3.91053C59.9385 3.45993 59.4584 3.16506 58.3847 2.77029C57.6305 2.49299 57.4445 2.40311 57.3207 2.25591C57.0053 1.88096 57.1282 1.2997 57.571 1.07201C57.7301 0.99019 57.8018 0.977545 58.1067 0.977545C58.4256 0.977545 58.4819 0.9886 58.7072 1.09534C59.0419 1.25392 59.2436 1.46996 59.4226 1.86144L59.5675 2.17853L59.7852 2.17886L60.0029 2.17919L59.9825 2.00357C59.9712 1.90696 59.9329 1.51599 59.8973 1.13468C59.8249 0.360415 59.8643 0.434289 59.5416 0.468268ZM94.107 0.588581C93.7987 0.688262 93.1004 0.811163 92.8423 0.811163C92.7723 0.811163 92.663 0.821553 92.5995 0.834272C92.4918 0.855827 92.484 0.868066 92.484 1.01485V1.17229L92.7335 1.19876C93.2069 1.24897 93.2972 1.33364 93.2972 1.72719C93.2972 2.08228 93.0422 5.58888 93.0028 5.77537C92.9296 6.12175 92.7978 6.20874 92.3454 6.20911L92.1143 6.20934V6.39066V6.57197L92.5117 6.59601C93.1869 6.63686 94.4179 6.72649 94.799 6.76254C94.9985 6.78143 95.1642 6.79363 95.1673 6.78964C95.1704 6.78568 95.1842 6.70456 95.198 6.60936L95.2231 6.43628L95.0456 6.41188C94.7551 6.37191 94.5913 6.32059 94.517 6.24631C94.3593 6.08858 94.3601 6.02569 94.5547 3.34143C94.6564 1.9396 94.7498 0.721945 94.7625 0.635537L94.7855 0.478399L94.6051 0.48217C94.5058 0.484241 94.2817 0.532122 94.107 0.588581ZM88.0113 0.696655C88.1443 0.787167 88.2627 1.0489 88.3055 1.34728C88.3534 1.68145 88.3542 3.01173 88.3069 3.67663C88.1999 5.18195 88.0334 5.88497 87.7419 6.06274C87.5113 6.20335 87.1929 6.11668 87.0706 5.88005C86.8912 5.53309 86.834 4.75205 86.8983 3.52874C86.969 2.18529 87.0417 1.59826 87.1993 1.09778C87.291 0.806837 87.3663 0.71004 87.5507 0.646223C87.7181 0.588248 87.8777 0.605737 88.0113 0.696655ZM52.0638 0.96246C51.0227 1.10917 49.6554 1.25289 48.0255 1.38699C47.7652 1.4084 47.7575 1.41188 47.758 1.50756C47.7592 1.7385 47.7888 1.77248 47.9886 1.77248C48.3945 1.77248 48.5659 1.88932 48.6618 2.23125C48.7257 2.45886 49.0944 5.95052 49.1016 6.39561C49.1056 6.6437 49.0924 6.73314 49.04 6.81334C48.9506 6.95011 48.78 7.04894 48.5411 7.10244L48.3438 7.14662L48.369 7.33426C48.3829 7.43746 48.3966 7.52438 48.3993 7.52745C48.4021 7.53048 48.7371 7.48489 49.1437 7.42611C49.9668 7.30709 51.638 7.13361 52.877 7.03855C53.3243 7.00424 53.7005 6.96586 53.713 6.95325C53.7255 6.94064 53.6933 6.52687 53.6415 6.03371L53.5471 5.1371L53.4154 5.13765C53.3429 5.13798 53.2643 5.15052 53.2407 5.16557C53.2171 5.18058 53.1785 5.29937 53.1549 5.42956C52.9954 6.30942 52.4956 6.68774 51.4909 6.68915C51.0864 6.6897 50.9144 6.63971 50.7479 6.47311C50.5789 6.30406 50.5514 6.18375 50.4434 5.1371L50.3613 4.34216L50.7032 4.33159C50.9893 4.32275 51.0695 4.33347 51.1945 4.39729C51.3754 4.48961 51.5383 4.70543 51.6423 4.99086L51.7197 5.20306L51.8733 5.18553C51.9577 5.17588 52.0442 5.1629 52.0653 5.15669C52.0905 5.14926 52.0757 4.95134 52.0217 4.57739C51.9766 4.265 51.9191 3.7152 51.8939 3.35559L51.8481 2.70178L51.6603 2.72297C51.5569 2.73461 51.4691 2.74648 51.4652 2.74929C51.4612 2.7521 51.4309 2.88706 51.3977 3.04915C51.3193 3.43323 51.2046 3.62931 51.0016 3.72658C50.845 3.80164 50.3612 3.90849 50.328 3.87537C50.2851 3.8324 50.0919 1.75473 50.1269 1.71255C50.1946 1.63095 50.5062 1.5851 51.0473 1.57708C51.719 1.56713 51.8856 1.60869 52.1197 1.84454C52.2202 1.94585 52.3306 2.11308 52.397 2.26482L52.5074 2.51684L52.688 2.49706C52.7873 2.48619 52.8759 2.46996 52.8848 2.46101C52.8938 2.45206 52.8666 2.11734 52.8244 1.71717C52.7822 1.31704 52.7477 0.96612 52.7477 0.937354C52.7477 0.872687 52.6842 0.875017 52.0638 0.96246ZM100.099 0.944564C99.0902 1.21536 98.3689 2.15205 98.0597 3.59241C97.9419 4.14143 97.9413 5.16897 98.0587 5.59927C98.3073 6.51041 98.8476 7.0489 99.6577 7.19269C99.9961 7.25274 100.283 7.23891 100.614 7.14655C101.336 6.94511 101.917 6.33142 102.113 5.56377C102.177 5.31213 102.185 4.75427 102.129 4.50958C102.015 4.01712 101.63 3.52619 101.197 3.32383C100.736 3.10783 100.298 3.10269 99.787 3.30719C99.6506 3.3618 99.5333 3.4007 99.5263 3.39367C99.5042 3.37108 99.6431 2.5022 99.7088 2.25314C99.8695 1.64274 100.152 1.3288 100.541 1.3288C100.821 1.3288 100.896 1.40049 101.045 1.80764C101.218 2.27865 101.528 2.50889 101.847 2.40362C102.069 2.33008 102.206 2.12895 102.205 1.8766C102.202 1.30059 101.538 0.882966 100.635 0.888105C100.452 0.889141 100.21 0.914542 100.099 0.944564ZM100.431 3.75039C100.679 3.87862 100.773 4.16631 100.77 4.7874C100.766 5.76654 100.521 6.56528 100.168 6.74764C100.008 6.83072 99.7251 6.81589 99.5779 6.71662C99.203 6.46394 99.1385 5.92016 99.327 4.60098C99.405 4.05476 99.4083 4.04423 99.5425 3.90565C99.6174 3.82822 99.7441 3.74067 99.824 3.71102C99.9952 3.6475 100.266 3.66506 100.431 3.75039ZM72.0571 4.91204C71.8009 5.02839 71.631 5.30222 71.631 5.59849C71.631 5.83572 71.6933 5.96719 71.89 6.14496C72.1909 6.41687 72.6423 6.42404 72.9239 6.16134C73.1699 5.93177 73.232 5.48753 73.0547 5.22606C72.9378 5.05387 72.883 5.00699 72.6897 4.91403C72.5025 4.824 72.2526 4.82323 72.0571 4.91204ZM45.7984 17.6205C41.9467 17.9558 38.9132 19.509 36.9139 22.1697C35.7939 23.6602 35.1132 25.3693 34.8326 27.3953C34.752 27.9768 34.7398 29.7628 34.8124 30.3532C34.9916 31.8119 35.3169 32.9345 35.9104 34.143C36.9336 36.2264 38.6109 37.8921 40.7698 38.969C42.0946 39.6299 43.5229 40.0385 45.1885 40.2332C45.8374 40.309 47.9808 40.2963 48.6262 40.2128C50.1017 40.0219 51.3184 39.7017 52.5095 39.1907C56.8452 37.3308 59.4021 33.2788 59.2409 28.523C59.1799 26.7212 58.8207 25.2463 58.0833 23.77C56.4173 20.4339 53.1999 18.2761 49.0382 17.7037C48.5805 17.6408 48.2489 17.6249 47.2215 17.6164C46.5303 17.6107 45.8899 17.6126 45.7984 17.6205ZM137.844 17.6989C137.825 17.7345 136.059 21.8982 133.92 26.9516C131.781 32.005 129.959 36.281 129.872 36.4539C129.312 37.5657 128.507 38.1695 127.214 38.4475L126.916 38.5116L126.906 39.17L126.896 39.8284L128.144 39.8014C129.745 39.7667 131.474 39.7666 133.229 39.8011L134.623 39.8285V39.1772C134.623 38.4333 134.667 38.5133 134.235 38.4682C133.421 38.3833 132.724 38.1327 132.364 37.796C132.098 37.5473 131.989 37.2905 131.969 36.8707C131.935 36.1452 132.076 35.6216 132.707 34.1412L133.156 33.0893L136.763 33.0894L140.371 33.0895L140.508 33.4314C140.583 33.6194 140.713 33.9397 140.796 34.143C140.989 34.6139 141.404 35.8277 141.498 36.194C141.602 36.6011 141.659 37.284 141.609 37.5108C141.457 38.1917 140.912 38.4334 139.363 38.5085L138.835 38.534L138.845 39.167L138.855 39.8L139.613 39.7971C140.03 39.7954 141.668 39.7876 143.254 39.7797C144.84 39.7718 147.006 39.7792 148.069 39.796L150 39.8268V39.1763C150 38.5314 149.999 38.5257 149.917 38.509C149.871 38.4998 149.682 38.4663 149.496 38.4345C149.057 38.3594 148.561 38.2143 148.274 38.0775C147.943 37.9194 147.704 37.7148 147.514 37.4274C147.071 36.7574 146.83 36.1739 143.197 27.0071C141.223 22.0249 139.576 17.8778 139.538 17.7914L139.469 17.6342H138.674C137.954 17.6342 137.875 17.6404 137.844 17.6989ZM77.3287 18.1029C76.274 18.1389 74.7477 18.1506 72.163 18.1426L68.4943 18.1314V18.7839V19.4364L68.7993 19.4616C69.7182 19.5375 70.3202 19.7251 70.7019 20.0547C70.8978 20.2238 71.257 20.7577 71.4573 21.1774C71.6297 21.5387 71.7748 21.9019 75.9987 32.5442L79.0476 40.2258L79.8576 40.2163L80.6677 40.2067L84.0797 31.8507C88.2677 21.5939 87.9981 22.2444 88.3485 21.5535C89.0519 20.1663 89.6259 19.7362 91.1152 19.4803C91.3484 19.4402 91.5526 19.3941 91.569 19.3777C91.5853 19.3614 91.5941 19.0664 91.5885 18.7222L91.5784 18.0964L90.5434 18.1149C88.9558 18.1433 85.5635 18.1369 84.3981 18.1033L83.3539 18.0733V18.7238C83.3539 19.2114 83.3654 19.3781 83.4001 19.3896C83.4255 19.398 83.6807 19.4232 83.9674 19.4456C85.1846 19.5408 85.7324 19.7691 85.9641 20.2776C86.2725 20.9543 86.0957 22.2665 85.4609 24.0122C85.2197 24.6755 81.6367 33.7547 81.6162 33.7547C81.5882 33.7548 77.3847 22.566 77.2336 22.0896C76.9477 21.1878 76.8881 20.5362 77.0609 20.2014C77.2951 19.7477 77.8632 19.5369 79.1074 19.4422L79.6944 19.3975V18.7192V18.0409L79.2601 18.0464C79.0212 18.0494 78.1521 18.0749 77.3287 18.1029ZM0 18.7005C0 19.3277 0.000776241 19.3338 0.083169 19.3495C0.128931 19.3582 0.357627 19.3918 0.591424 19.4241C1.67288 19.5738 2.05202 19.7806 2.78206 20.6191L3.10479 20.9898L3.10516 28.2135C3.10542 33.2209 3.093 35.5619 3.06469 35.8439C2.91554 37.3283 2.42968 37.915 1.01348 38.3204C0.832171 38.3723 0.575715 38.4367 0.443568 38.4636L0.203302 38.5124L0.193211 39.1893L0.18312 39.8662L0.433477 39.8434C1.29289 39.765 2.70702 39.7378 4.80532 39.7594C6.05563 39.7723 7.25744 39.7932 7.47597 39.8059L7.87334 39.829V39.1774C7.87334 38.5312 7.87267 38.5257 7.79017 38.5096C7.74441 38.5008 7.58224 38.4736 7.42977 38.4494C7.27729 38.4252 7.00283 38.3577 6.81986 38.2994C5.77836 37.9677 5.2693 37.3021 4.99828 35.9178C4.94745 35.6581 4.9388 34.8571 4.92727 29.3549L4.91414 23.0879L5.00349 23.1803C5.05261 23.2311 8.34921 27.0829 12.3292 31.7397L19.5656 40.2067L20.4828 40.2166L21.4 40.2265L21.4121 31.2505C21.4254 21.374 21.4117 21.9653 21.6462 21.1558C21.9676 20.0464 22.6652 19.5508 24.1837 19.3533L24.3593 19.3305V18.7135V18.0964H20.515H16.6708V18.7157C16.6708 19.0563 16.6811 19.335 16.6938 19.335C16.7064 19.335 16.8904 19.3608 17.1026 19.3923C18.2143 19.5575 18.9425 19.9648 19.2475 20.5921C19.4121 20.9306 19.5452 21.4178 19.6101 21.9191C19.6577 22.2866 19.6643 23.0957 19.656 27.5424L19.6464 32.7363L13.2701 25.4376C9.76312 21.4233 6.88329 18.1233 6.87047 18.1041C6.85594 18.0824 6.52814 18.0856 6.00181 18.1124C4.05717 18.2117 1.88406 18.2033 0.323435 18.0906L0 18.0673V18.7005ZM101.143 21.1005L101.152 24.0492L101.767 24.0593L102.381 24.0694L102.484 23.6526C102.783 22.4381 103.179 21.5909 103.695 21.0673C104.466 20.2832 105.498 19.9603 107.695 19.8162C108.29 19.7772 110.235 19.7746 111.213 19.8115L111.812 19.8342L105.918 29.091L100.025 38.3478V39.0463V39.7447L108.683 39.7354L117.342 39.7261L117.497 36.5833C117.582 34.8548 117.653 33.3694 117.654 33.2825L117.656 33.1245L117.025 33.1346L116.393 33.1447L116.254 33.6993C116.077 34.3999 115.958 34.7479 115.733 35.2243C114.98 36.8186 113.578 37.6948 111.336 37.9723C110.829 38.035 105.883 38.0677 105.92 38.0081C105.934 37.9842 108.598 33.8208 111.838 28.7563L117.73 19.5479V18.8499V18.1519H109.432H101.133L101.143 21.1005ZM47.6019 19.2266C48.3111 19.3045 48.9643 19.4804 49.531 19.7459C51.4784 20.6584 52.733 22.7797 53.1899 25.9322C53.4658 27.8365 53.4578 30.4363 53.1701 32.3683C52.915 34.0805 52.3972 35.5087 51.6515 36.557C51.3897 36.9249 50.8653 37.4506 50.5004 37.7109C49.4084 38.4899 47.9972 38.8209 46.4083 38.6708C43.6701 38.4122 41.9181 36.6943 41.1106 33.4763C40.6991 31.8363 40.5286 29.8011 40.6159 27.5707C40.7047 25.3023 40.9304 24.0051 41.454 22.7551C42.2289 20.9052 43.4589 19.8219 45.3179 19.3517C45.9185 19.1999 46.8795 19.1472 47.6019 19.2266ZM138.356 27.7566C139.115 29.7753 139.727 31.435 139.717 31.4449C139.707 31.4548 138.385 31.4586 136.779 31.4534L133.859 31.4439L135.395 27.7195C136.24 25.6711 136.942 24.0156 136.955 24.0406C136.968 24.0657 137.598 25.7379 138.356 27.7566ZM33.7043 50.322C32.6877 50.4711 31.9554 50.9747 31.5848 51.7795C31.4069 52.1659 31.3638 52.3878 31.3657 52.9072C31.3677 53.4488 31.4254 53.7106 31.6389 54.1464C32.018 54.9205 32.5437 55.3174 34.1363 56.0323C35.2368 56.5264 35.6189 56.7999 35.8393 57.2517C35.938 57.454 35.9475 57.5076 35.9475 57.8617C35.9475 58.2093 35.937 58.2714 35.847 58.4545C35.4387 59.2862 34.2173 59.5852 33.2765 59.0836C32.7184 58.786 32.2409 58.0863 31.9563 57.1486L31.8577 56.8236L31.5438 56.8343L31.23 56.8449L31.2301 58.3239L31.2302 59.8028H31.5539H31.8775L31.957 59.4886C32.0007 59.3157 32.0537 59.1778 32.0749 59.1821C32.096 59.1865 32.236 59.278 32.386 59.3855C32.9935 59.8211 33.4457 59.9666 34.2848 59.9961C35.3585 60.0338 36.1837 59.8004 36.8365 59.2743C37.569 58.684 37.9479 57.6933 37.8149 56.7155C37.7252 56.0553 37.5155 55.6409 37.0195 55.143C36.5065 54.6282 36.024 54.3384 34.7171 53.7604C33.733 53.3251 33.5378 53.2193 33.3229 53.0044C33.0956 52.7769 32.9924 52.5199 32.9946 52.1862C32.9979 51.7058 33.2284 51.3401 33.6632 51.1261C33.8733 51.0226 33.9549 51.0039 34.2543 50.9908C34.7009 50.9713 34.9855 51.0278 35.3698 51.2123C35.9405 51.4862 36.3087 51.9608 36.5628 52.7501L36.6491 53.0182H36.9725H37.2957L37.2746 51.7518C37.263 51.0553 37.2469 50.464 37.2387 50.4378C37.2278 50.4026 37.1398 50.3929 36.901 50.4008L36.5781 50.4115L36.4981 50.6888C36.454 50.8413 36.4029 50.9631 36.3845 50.9594C36.366 50.9557 36.2272 50.8764 36.076 50.7832C35.3984 50.3653 34.5428 50.1989 33.7043 50.322ZM102.798 50.4748C102.76 50.562 102.011 52.3304 101.133 54.4047C100.255 56.4789 99.4961 58.2624 99.4464 58.368C99.3342 58.606 99.0676 58.9072 98.8652 59.0244C98.7812 59.073 98.5918 59.1491 98.4444 59.1934L98.1764 59.2739V59.5476V59.8213H99.8414H101.506L101.496 59.5533L101.485 59.2852L101.337 59.2546C100.517 59.0845 100.358 58.9593 100.357 58.4843C100.357 58.1985 100.427 57.954 100.677 57.3624L100.856 56.9386L102.394 56.938L103.933 56.9374L104.053 57.2239C104.442 58.1511 104.565 58.776 104.401 58.9961C104.293 59.1404 104.043 59.2238 103.629 59.2529L103.277 59.2776V59.5495V59.8213H105.68H108.083V59.5457V59.2701L107.944 59.2469C107.473 59.1681 107.168 59.0264 107.034 58.824C106.845 58.5383 106.69 58.1652 105.161 54.3122L103.583 50.3376L103.225 50.3269L102.868 50.3164L102.798 50.4748ZM17.6102 50.4639C17.6018 50.4724 17.5949 50.6013 17.5949 50.7504V51.0216L17.7335 51.0222C17.9736 51.0233 18.3786 51.1276 18.5288 51.2271C18.6282 51.2928 18.7041 51.3883 18.7718 51.5327L18.8701 51.7426L18.8807 54.9593C18.8917 58.3179 18.8824 58.563 18.735 58.8253C18.6161 59.037 18.2806 59.1873 17.7889 59.2492L17.5949 59.2737V59.5668V59.8599L18.214 59.8313C19.0065 59.7949 24.2385 59.7953 25.1263 59.8319L25.8009 59.8597V58.454V57.0483H25.5237C25.3118 57.0483 25.2464 57.0604 25.2464 57.0996C25.2464 57.2079 25.0516 57.8167 24.9464 58.0372C24.7861 58.3732 24.4911 58.6747 24.1654 58.8355C23.7498 59.0407 23.4679 59.0951 22.8253 59.0942C22.0097 59.093 21.6174 58.9814 21.3563 58.6763C21.1064 58.3843 21.0951 58.3046 21.078 56.7248L21.0628 55.3105L21.3156 55.3108C21.4547 55.311 21.6755 55.3285 21.8063 55.3497C22.4576 55.4554 22.7293 55.7496 22.9737 56.6139L23.0338 56.8265H23.3292H23.6245L23.5958 56.5584C23.5578 56.2041 23.5571 53.7025 23.5949 53.3602L23.6245 53.0921L23.3173 53.0923L23.0101 53.0925L22.8732 53.5267C22.798 53.7656 22.687 54.0386 22.6266 54.1334C22.4306 54.4411 22.1004 54.5765 21.4214 54.6274L21.0695 54.6538V53.0308C21.0695 51.6487 21.0777 51.396 21.1249 51.3287C21.2337 51.1732 21.6597 51.1367 22.5368 51.2078C23.4272 51.28 23.8516 51.4222 24.1245 51.74C24.2741 51.914 24.467 52.2993 24.5839 52.6577L24.6654 52.9072H24.9564H25.2474L25.2377 51.6779C25.2281 50.4725 25.2265 50.4487 25.154 50.4585C24.9437 50.4871 19.0901 50.5047 18.4142 50.4788C17.9804 50.4621 17.6187 50.4554 17.6102 50.4639ZM116.27 50.4741C115.803 50.4921 114.834 50.5019 114.117 50.4958L112.814 50.4848V50.7661V51.0474L113.176 51.0711C113.932 51.1207 114.133 51.2728 114.218 51.8606C114.268 52.2037 114.267 57.8517 114.217 58.2869C114.14 58.9638 113.923 59.1527 113.147 59.2207L112.833 59.2482L112.822 59.5348L112.811 59.8213H115.272H117.734L117.723 59.5348L117.712 59.2482L117.405 59.2228C116.817 59.174 116.58 59.0269 116.45 58.6294C116.396 58.4632 116.385 58.2303 116.372 57.0336L116.357 55.6325L116.579 55.6526C116.872 55.6792 117.142 55.8283 117.338 56.0714C117.422 56.1753 118.047 57.0612 118.728 58.0399L119.967 59.8193L121.15 59.8206C121.8 59.8213 122.446 59.8325 122.584 59.8456L122.835 59.8693L122.824 59.602L122.813 59.3348L122.616 59.2654C122.345 59.1704 122.109 59.0262 121.893 58.8256C121.794 58.7327 121.346 58.1409 120.899 57.5105C119.646 55.7453 119.496 55.5543 119.168 55.308L118.992 55.1761L119.335 55.0933C119.524 55.0477 119.835 54.9342 120.026 54.8409C120.307 54.7038 120.426 54.6176 120.651 54.3901C120.972 54.0654 121.103 53.8408 121.206 53.4402C121.341 52.9109 121.276 52.2668 121.041 51.8016C120.915 51.5532 120.525 51.1456 120.263 50.9874C119.738 50.6712 119.041 50.5139 117.952 50.4658C117.535 50.4474 117.178 50.4344 117.157 50.4369C117.137 50.4393 116.738 50.4561 116.27 50.4741ZM70.0838 50.734V51.0065L70.3782 51.0494C70.9029 51.1259 71.1622 51.2859 71.2929 51.6137C71.3544 51.7678 71.3598 52.0072 71.3694 55.0023C71.3808 58.5206 71.3769 58.5972 71.1722 58.9067C71.0481 59.0942 70.8394 59.1856 70.4158 59.2377L70.0838 59.2786V59.57V59.8614L70.3703 59.8336C70.7563 59.7961 73.8782 59.7953 74.3993 59.8326L74.8152 59.8623V59.5681V59.274L74.5842 59.2502C74.0285 59.193 73.7925 59.094 73.6884 58.8747C73.5872 58.6612 73.5599 58.3426 73.5592 57.3626L73.5585 56.4382L73.9373 55.9874C74.1457 55.7394 74.3279 55.5398 74.3423 55.5437C74.3567 55.5476 74.8602 56.2077 75.4612 57.0105C76.673 58.6291 76.7388 58.7424 76.6025 58.976C76.514 59.1274 76.2887 59.2194 75.9227 59.2534L75.6654 59.2773V59.5586V59.8398H78.0126H80.3598V59.5395V59.2392L80.2193 59.2167C79.9742 59.1775 79.6298 58.9767 79.3947 58.736C79.1573 58.4929 75.6974 54.0162 75.7121 53.9711C75.7414 53.8805 77.7035 51.6544 77.8759 51.5161C78.148 51.2978 78.4002 51.1808 78.8096 51.083L79.14 51.0041V50.7338V50.4636L79.0014 50.493C78.9251 50.5092 78.1267 50.5215 77.2271 50.5204L75.5914 50.5182V50.7673V51.0162L75.804 51.0402C76.1096 51.0747 76.3964 51.1612 76.4791 51.2439C76.586 51.3509 76.6025 51.4752 76.5389 51.6942C76.4225 52.0947 75.9213 52.7517 74.4163 54.4765L73.5769 55.4385L73.5663 53.8494C73.5532 51.8872 73.5895 51.5376 73.8322 51.295C73.955 51.1721 74.2555 51.0589 74.4615 51.058C74.7269 51.0568 74.7413 51.0404 74.7413 50.7377V50.4625L74.4753 50.4887C74.0973 50.526 71.32 50.5283 70.6475 50.492L70.0838 50.4615V50.734ZM43.1817 50.7905L43.1925 51.077L43.5626 51.0995C44.2061 51.1387 44.3653 51.2869 44.435 51.9121C44.4577 52.1156 44.4669 53.446 44.459 55.3756C44.4473 58.2264 44.4404 58.5261 44.3822 58.7009C44.2643 59.0547 44.0918 59.1581 43.4891 59.2359L43.174 59.2766V59.5489V59.8213H45.5582H47.9423V59.5457V59.2701L47.8037 59.2474C47.7275 59.235 47.6152 59.2164 47.5542 59.2062C47.091 59.1285 46.8678 58.9615 46.7599 58.6123C46.6907 58.3882 46.6856 58.2698 46.6856 56.8965V55.4214H48.7217H50.7578L50.7421 56.9836C50.7312 58.0666 50.7126 58.5886 50.6815 58.6854C50.6153 58.8917 50.4422 59.0682 50.2416 59.1343C50.0913 59.1838 49.6431 59.2638 49.5041 59.266C49.4713 59.2665 49.4579 59.3472 49.4579 59.544V59.8213H51.8621H54.2664L54.2556 59.5534L54.2447 59.2855L53.8839 59.2239C53.4019 59.1416 53.2312 59.0412 53.0923 58.7584L52.9879 58.5457L52.9775 55.2572C52.9704 52.9901 52.9796 51.9085 53.0074 51.7747C53.0942 51.3568 53.3723 51.155 53.9305 51.1051L54.2447 51.077L54.2553 50.7997L54.266 50.5224L51.8605 50.5206L49.455 50.5189L49.4657 50.798L49.4763 51.077L49.7437 51.1009C50.3531 51.1554 50.5588 51.264 50.6656 51.5882C50.7196 51.752 50.7307 51.9882 50.7428 53.2308L50.7569 54.682H48.7212H46.6856V53.3022C46.6856 51.835 46.7028 51.664 46.8754 51.4213C46.9925 51.2567 47.304 51.1287 47.6446 51.1054L47.9423 51.0849V50.7944V50.5039H45.5566H43.1709L43.1817 50.7905ZM59.7417 50.7964L59.7523 51.077L60.1241 51.0974C60.5503 51.1208 60.7369 51.1942 60.8706 51.3909C61.0478 51.6518 61.0461 51.6145 61.0461 55.1441C61.0461 58.2069 61.0409 58.4884 60.9815 58.6805C60.9051 58.9274 60.7374 59.0944 60.5013 59.1586C60.3504 59.1997 59.9341 59.263 59.7985 59.2655C59.7428 59.2665 59.7339 59.305 59.7339 59.544V59.8213H62.1936H64.6533L64.6425 59.5545C64.6301 59.2501 64.6646 59.2755 64.1503 59.1935C63.7263 59.1259 63.505 58.9558 63.3854 58.6056C63.3215 58.4186 63.2959 52.1778 63.3577 51.8535C63.4569 51.3324 63.6863 51.1561 64.3359 51.1018L64.6316 51.077L64.6422 50.7982L64.6529 50.5193L62.1919 50.5175L59.731 50.5157L59.7417 50.7964ZM85.1281 50.7764V51.0489L85.4701 51.092C86.0103 51.1603 86.2464 51.3193 86.3474 51.6827C86.3709 51.7677 86.3846 53.0173 86.3847 55.1087C86.3849 58.6873 86.3848 58.6892 86.1802 58.9575C86.0647 59.1091 85.7903 59.2134 85.4146 59.2486L85.1281 59.2754V59.5728V59.8702L86.2093 59.8458C86.804 59.8324 88.6902 59.8214 90.4009 59.8214L93.5112 59.8213L93.5326 59.2575C93.5444 58.9473 93.5616 58.3228 93.571 57.8695L93.5879 57.0454L93.293 57.0561L92.998 57.0668L92.8897 57.3895C92.7139 57.9133 92.5402 58.2202 92.2666 58.4903C91.7858 58.9651 91.1853 59.1469 90.2292 59.1073C89.493 59.0767 89.1461 58.9553 88.9104 58.6458C88.7556 58.4426 88.682 58.1946 88.6394 57.7323C88.5941 57.2417 88.5935 52.3456 88.6387 51.9525C88.712 51.3148 88.8853 51.1766 89.7394 51.0747L89.9335 51.0516V50.7778V50.5039H87.5308H85.1281V50.7764ZM127.497 50.7963L127.507 51.077L127.879 51.0974C128.305 51.1208 128.492 51.1942 128.626 51.3909C128.803 51.6518 128.801 51.6145 128.801 55.1441C128.801 58.2069 128.796 58.4884 128.737 58.6805C128.66 58.9274 128.492 59.0944 128.256 59.1586C128.105 59.1997 127.689 59.263 127.554 59.2655C127.498 59.2665 127.489 59.305 127.489 59.544V59.8213H129.929H132.368V59.5457V59.2701L132.23 59.2482C131.578 59.1454 131.416 59.0803 131.269 58.8631C131.091 58.5981 131.093 58.6397 131.093 55.1072V51.7795L131.196 51.5689C131.351 51.2545 131.67 51.097 132.156 51.096L132.368 51.0955V50.8076V50.5198L129.927 50.5176L127.486 50.5155L127.497 50.7963ZM117.57 51.167C118.258 51.2975 118.699 51.7231 118.861 52.4119C118.946 52.7747 118.916 53.5769 118.806 53.8841C118.645 54.3343 118.423 54.5939 118.046 54.772C117.793 54.8915 117.512 54.9385 116.888 54.9661L116.359 54.9894L116.37 53.1996C116.382 51.248 116.378 51.2813 116.597 51.1864C116.734 51.1268 117.298 51.1156 117.57 51.167ZM103.07 54.6402C103.388 55.4815 103.647 56.1844 103.647 56.2023C103.647 56.2204 103.096 56.2349 102.405 56.2349C101.426 56.2349 101.166 56.2251 101.18 56.1887C101.216 56.0971 102.321 53.4203 102.393 53.2529C102.433 53.1587 102.472 53.0881 102.48 53.0961C102.488 53.1041 102.753 53.7989 103.07 54.6402Z" fill="#E5AD1C"/>
</svg>
