<svg width="45" height="45" viewBox="0 0 45 45" fill="none" xmlns="http://www.w3.org/2000/svg">
<g clip-path="url(#clip0_203_9)">
<path d="M22.5 0C16.534 0 10.807 2.37199 6.5918 6.59004C2.37221 10.8098 0.00116884 16.5325 0 22.5C0 28.465 2.37305 34.1919 6.5918 38.41C10.807 42.628 16.534 45 22.5 45C28.466 45 34.193 42.628 38.4082 38.41C42.627 34.1919 45 28.465 45 22.5C45 16.535 42.627 10.8081 38.4082 6.59004C34.193 2.37199 28.466 0 22.5 0Z" fill="url(#paint0_linear_203_9)"/>
<path d="M10.1848 22.2626C16.745 19.4051 21.1184 17.5211 23.3051 16.6109C29.5559 14.0118 30.8532 13.5603 31.7005 13.5451C31.8868 13.5421 32.3016 13.5881 32.5723 13.807C32.7973 13.9915 32.8606 14.2411 32.8922 14.4164C32.9204 14.5915 32.959 14.9905 32.9274 15.302C32.5899 18.8598 31.1239 27.4935 30.3786 31.4784C30.0657 33.1645 29.4434 33.7298 28.8423 33.785C27.5344 33.9053 26.543 32.9216 25.2774 32.0923C23.2981 30.7939 22.1801 29.986 20.2571 28.7194C18.0352 27.2555 19.4766 26.4507 20.7423 25.1359C21.0727 24.7917 26.8313 19.5552 26.9403 19.0802C26.9544 19.0208 26.9684 18.7993 26.8348 18.6826C26.7048 18.5655 26.5114 18.6056 26.3708 18.6373C26.1704 18.6823 23.0098 20.7734 16.8786 24.9102C15.9821 25.5268 15.17 25.8274 14.4387 25.8116C13.6372 25.7944 12.0903 25.3574 10.9407 24.984C9.53444 24.5259 8.41295 24.2837 8.51139 23.5057C8.56061 23.1007 9.11959 22.6862 10.1848 22.2626Z" fill="white"/>
</g>
<defs>
<linearGradient id="paint0_linear_203_9" x1="22.5" y1="0" x2="22.5" y2="45" gradientUnits="userSpaceOnUse">
<stop stop-color="#2AABEE"/>
<stop offset="1" stop-color="#229ED9"/>
</linearGradient>
<clipPath id="clip0_203_9">
<rect width="45" height="45" fill="white"/>
</clipPath>
</defs>
</svg>
